<svg width="35" height="35" viewBox="0 0 35 35" fill="none" xmlns="http://www.w3.org/2000/svg">
<g clip-path="url(#clip0_157_346)">
<path d="M17.5 2.91667C9.45002 2.91667 2.91669 9.45 2.91669 17.5C2.91669 25.55 9.45002 32.0833 17.5 32.0833C25.55 32.0833 32.0834 25.55 32.0834 17.5C32.0834 9.45 25.55 2.91667 17.5 2.91667ZM12.3375 21.0729L10.3542 20.1688C10.7625 19.2792 10.9521 18.3604 10.9375 17.4563C10.9229 16.5375 10.7334 15.6479 10.3542 14.8313L12.3375 13.9125C12.8479 15.0063 13.1104 16.1875 13.125 17.4125C13.1396 18.6667 12.8771 19.8917 12.3375 21.0729ZM16.8146 23.3479L14.9188 22.2688C15.6771 20.9271 16.0563 19.3813 16.0563 17.675C16.0563 15.9396 15.6625 14.2771 14.8896 12.7167L16.8438 11.7396C17.7771 13.6063 18.2438 15.6042 18.2438 17.675C18.2438 19.7604 17.7625 21.6708 16.8146 23.3479ZM21.3938 25.2729L19.425 24.3104C20.5625 21.9771 21.1459 19.6729 21.1459 17.4708C21.1459 15.2688 20.5625 12.9938 19.425 10.7042L21.3792 9.72709C22.6917 12.3229 23.3334 14.9188 23.3334 17.4708C23.3334 20.0083 22.6917 22.6333 21.3938 25.2729Z" fill="black" fill-opacity="0.63"/>
</g>
<defs>
<clipPath id="clip0_157_346">
<rect width="35" height="35" fill="white"/>
</clipPath>
</defs>
</svg>
