<svg width="35" height="35" viewBox="0 0 35 35" fill="none" xmlns="http://www.w3.org/2000/svg">
<g clip-path="url(#clip0_157_351)">
<path d="M16.0417 20.4167H13.125C13.125 13.1688 19.0021 7.29167 26.25 7.29167V10.2083C20.6062 10.2083 16.0417 14.7729 16.0417 20.4167ZM26.25 16.0417V13.125C22.225 13.125 18.9583 16.3917 18.9583 20.4167H21.875C21.875 17.9958 23.8292 16.0417 26.25 16.0417ZM10.2083 5.83334C10.2083 4.21459 8.91041 2.91667 7.29166 2.91667C5.67291 2.91667 4.37499 4.21459 4.37499 5.83334C4.37499 7.45209 5.67291 8.75 7.29166 8.75C8.91041 8.75 10.2083 7.45209 10.2083 5.83334ZM16.6979 6.5625H13.7812C13.4312 8.63334 11.6521 10.2083 9.47916 10.2083H5.10416C3.89374 10.2083 2.91666 11.1854 2.91666 12.3958V16.0417H11.6667V12.7458C14.3792 11.8854 16.4062 9.49375 16.6979 6.5625ZM27.7083 24.7917C29.3271 24.7917 30.625 23.4938 30.625 21.875C30.625 20.2563 29.3271 18.9583 27.7083 18.9583C26.0896 18.9583 24.7917 20.2563 24.7917 21.875C24.7917 23.4938 26.0896 24.7917 27.7083 24.7917ZM29.8958 26.25H25.5208C23.3479 26.25 21.5687 24.675 21.2187 22.6042H18.3021C18.5937 25.5354 20.6208 27.9271 23.3333 28.7875V32.0833H32.0833V28.4375C32.0833 27.2271 31.1062 26.25 29.8958 26.25Z" fill="black" fill-opacity="0.63"/>
</g>
<defs>
<clipPath id="clip0_157_351">
<rect width="35" height="35" fill="white"/>
</clipPath>
</defs>
</svg>
